<?xml version="1.0" encoding="UTF-8"?>
<svg width="1200pt" height="1200pt" version="1.1" viewBox="0 0 1200 1200" xmlns="http://www.w3.org/2000/svg">
 <g>
  <path d="m743.81 655.02c-10.871 0-21.219 3.2656-30.008 9.2695-9.1094-6.7227-19.984-10.512-31.516-10.512-14.266 0-27.68 5.5547-37.766 15.645-4.6875 4.6875-4.6875 12.289 0 16.969 4.6875 4.6875 12.293 4.6875 16.969 0 11.109-11.105 30.469-11.113 41.582 0 5.5547 5.5547 8.6133 12.938 8.6133 20.789 0 7.8594-3.0586 15.238-8.6133 20.797-4.6875 4.6875-4.6875 12.281 0 16.969 2.3438 2.3438 5.4141 3.5156 8.4844 3.5156 3.0703 0 6.1406-1.1719 8.4844-3.5156 10.09-10.09 15.645-23.496 15.645-37.766 0-8.6094-2.25-16.805-6.0742-24.25 11.133-5.9375 25.84-4.4492 34.992 4.7031 2.3438 2.3438 5.4141 3.5156 8.4844 3.5156 3.0703 0 6.1406-1.1719 8.4844-3.5156 4.6875-4.6797 4.6875-12.281 0-16.969-10.082-10.09-23.496-15.645-37.762-15.645z"/>
  <path d="m839.67 620.45c-2.9414-3.0781-6.1172-5.9336-9.4805-8.5547 14.891-10.66 24.512-28.078 24.512-47.234 0-26.227-17.508-48.516-41.449-55.758 5.5234-18.887 4.5664-39.203-2.9727-58.605-8.8047-22.66-27.699-40.969-50.531-48.98-18.715-6.5703-37.84-7.1836-55.48-2.1562 0.79688-9.3672-0.68359-19.066-4.5508-28.465-5.9648-14.484-17.848-25.793-32.609-31.031-18.832-6.6992-38.672-4.1406-54.422 6.9727-4.9219 3.4766-9.125 7.707-12.688 12.391-3.5625-4.6836-7.7656-8.9141-12.684-12.387-15.742-11.113-35.582-13.672-54.422-6.9727-14.762 5.2383-26.645 16.547-32.609 31.031-3.8672 9.3984-5.3516 19.098-4.5508 28.465-17.625-5.0352-36.762-4.418-55.484 2.1562-22.832 8.0117-41.723 26.32-50.531 48.98-7.5352 19.398-8.4961 39.723-2.9727 58.605-23.941 7.2422-41.449 29.531-41.449 55.758 0 19.152 9.6211 36.574 24.512 47.234-3.3633 2.6172-6.5391 5.4805-9.4805 8.5547h-0.007813c-15.801 16.5-24.512 38.168-24.512 61.008 0 38.32 24.426 71.547 59.734 83.547-3.3242 14.703-1.7148 29.949 4.8086 44.766 6.8203 15.48 19.824 28.109 35.652 34.629 18.703 7.7227 38.121 7.6055 55.664-0.14062 13.398 12.859 30.758 19.699 48.949 19.695 9.1875 0 18.59-1.7383 27.801-5.332 13.051-5.082 23.945-14.262 31.582-25.848 7.6367 11.582 18.531 20.766 31.57 25.844 9.2109 3.5898 18.613 5.332 27.801 5.332 18.195 0 35.547-6.832 48.949-19.695 17.555 7.7461 36.98 7.8594 55.66 0.14453 15.836-6.5273 28.84-19.152 35.66-34.637 6.5273-14.82 8.1328-30.066 4.8086-44.766 35.309-12 59.734-45.23 59.734-83.547 0-22.84-8.707-44.508-24.512-61.008 0.003906 0.003907 0.003906 0.003907 0 0.003907zm-279.95 215.81c-25.137 9.7852-45.422-1.0078-56.027-14.379-2.3555-2.957-5.8555-4.5352-9.4023-4.5352-2.1641 0-4.3359 0.57812-6.293 1.7891-9.1992 5.6719-24.078 10.816-42.836 3.0781-10.168-4.1836-18.492-12.254-22.84-22.117-7.2266-16.406-4.2109-30.066-0.41797-38.637 1.5-3.375 1.3594-7.2539-0.38281-10.512-1.7383-3.2578-4.8828-5.5391-8.5195-6.1719-30.82-5.3945-53.191-32.02-53.191-63.316 0-16.621 6.332-32.391 17.836-44.402 6.5547-6.8359 14.668-12.234 23.453-15.621 5.0859-1.957 8.2148-7.1016 7.6172-12.516-0.60547-5.4219-4.7812-9.7578-10.172-10.551-16.953-2.5078-29.25-16.68-29.25-33.703 0-18.797 15.297-34.152 34.109-34.234 4.1523-0.015625 8.0039-2.1836 10.176-5.7266 2.168-3.5391 2.3555-7.9531 0.49219-11.668-5.9141-11.766-11.055-30.691-1.9844-54.043 6.2969-16.211 19.797-29.309 36.105-35.035 22.395-7.8633 45.453-4.2656 63.246 9.8203 4.8633 3.8555 11.848 3.3672 16.117-1.1016 4.2852-4.4727 4.457-11.465 0.41016-16.148-8.8633-10.262-10.867-23.633-5.4883-36.691 3.3242-8.0742 10.211-14.637 18.441-17.555 11.395-4.0586 23.242-2.6094 32.555 3.9609 9.0938 6.4219 14.523 16.895 14.523 28.016v323.87c-10.578-8.3164-23.734-13.484-38.203-13.484-34.301 0-62.203 27.902-62.203 62.199 0 6.6289 5.3711 12 12 12s12-5.3711 12-12c0-21.066 17.141-38.199 38.203-38.199s38.203 17.133 38.203 38.199v25.73c0 19.535-11.367 37.094-28.277 43.684zm227.27-91.488c-3.6406 0.63281-6.7773 2.9141-8.5195 6.1719-1.7383 3.2578-1.8828 7.1367-0.38281 10.512 3.7969 8.5742 6.8086 22.23-0.41797 38.637-4.3477 9.8672-12.672 17.934-22.848 22.125-18.738 7.7344-33.633 2.5898-42.832-3.082-5.1719-3.1797-11.918-2.0117-15.699 2.7461-10.605 13.363-30.871 24.172-56.027 14.379-16.902-6.5898-28.27-24.148-28.27-43.688v-239.83c10.578 8.3164 23.734 13.484 38.203 13.484 34.301 0 62.203-27.902 62.203-62.203 0-6.6289-5.3711-12-12-12s-12 5.3711-12 12c0 21.066-17.141 38.203-38.203 38.203s-38.203-17.141-38.203-38.203v-109.77c0-11.121 5.4297-21.59 14.523-28.016 5.8281-4.1133 12.664-6.2148 19.758-6.2148 4.2266 0 8.543 0.74219 12.797 2.2578 8.2266 2.918 15.117 9.4805 18.441 17.555 5.3789 13.059 3.375 26.43-5.4883 36.691-4.0469 4.6797-3.8711 11.676 0.41016 16.148 4.2773 4.4766 11.266 4.9531 16.117 1.1016 17.797-14.098 40.84-17.676 63.246-9.8203 16.305 5.7266 29.805 18.82 36.105 35.035 9.0703 23.352 3.9258 42.273-1.9844 54.043-1.8633 3.7148-1.6758 8.1289 0.49219 11.668 2.1719 3.5391 6.0234 5.707 10.176 5.7266 18.809 0.082031 34.109 15.441 34.109 34.234 0 17.02-12.297 31.195-29.25 33.703-5.3906 0.79688-9.5703 5.1328-10.172 10.551-0.59766 5.4141 2.5312 10.559 7.6172 12.516 8.7891 3.3867 16.898 8.7852 23.453 15.621 11.504 12.012 17.836 27.777 17.836 44.402 0 31.293-22.371 57.918-53.191 63.312z"/>
  <path d="m510.67 600.59c0 6.6289 5.3711 12 12 12s12-5.3711 12-12c0-18.797-9.8125-35.277-24.531-44.797 0.058594-0.058593 0.13281-0.097656 0.19141-0.15625 20.82-20.824 20.82-54.703 0-75.527-4.6875-4.6875-12.281-4.6875-16.969 0-4.6875 4.6797-4.6875 12.281 0 16.969 11.461 11.465 11.461 30.121 0 41.59-11.461 11.461-30.129 11.461-41.59 0-4.6875-4.6875-12.293-4.6875-16.969 0-4.6875 4.6875-4.6875 12.289 0 16.969 10.414 10.414 24.086 15.613 37.766 15.613 2.0547 0 4.0938-0.35156 6.1367-0.58594 0.85156 0.19141 1.6523 0.51562 2.5586 0.51562 16.215 0 29.406 13.195 29.406 29.41z"/>
  <path d="m1068 612c6.6289 0 12-5.3711 12-12s-5.3711-12-12-12h-108v-168h62.531c4.6367 10.586 15.172 18 27.469 18 16.566 0 30-13.434 30-30 0-16.57-13.434-30-30-30-12.297 0-22.836 7.4141-27.469 18h-62.531v-96c0-33.082-26.918-60-60-60h-95.949v-108c0-6.6289-5.3711-12-12-12-6.6289 0-12 5.3711-12 12v108h-168v-108c0-6.6289-5.3711-12-12-12-6.6289 0-12 5.3711-12 12v108h-168v-62.531c10.586-4.6328 18-15.172 18-27.469 0-16.57-13.434-30-30-30-16.57 0-30 13.43-30 30 0 12.297 7.4141 22.832 18 27.469v62.531h-96.051c-33.082 0-60 26.918-60 60v96h-108c-6.6289 0-12 5.3711-12 12s5.3711 12 12 12h108v168h-108c-6.6289 0-12 5.3711-12 12s5.3711 12 12 12h108v168h-62.531c-4.6328-10.586-15.172-18-27.469-18-16.57 0-30 13.43-30 30 0 16.566 13.43 30 30 30 12.297 0 22.832-7.4141 27.469-18h62.531v96c0 33.082 26.918 60 60 60h96v62.66c-10.555 4.6445-17.945 15.164-17.945 27.438 0 16.566 13.43 30 30 30 16.566 0 30-13.434 30-30 0-12.316-7.4375-22.875-18.055-27.496v-62.602h168v108c0 6.6289 5.3711 12 12 12s12-5.3711 12-12v-108h168v108c0 6.6289 5.3711 12 12 12s12-5.3711 12-12v-108h96c33.082 0 60-26.918 60-60v-96h108c6.6289 0 12-5.3711 12-12s-5.3711-12-12-12h-108v-168zm-132 288c0 19.852-16.148 36-36 36h-600c-19.852 0-36-16.148-36-36v-600c0-19.852 16.148-36 36-36h600c19.852 0 36 16.148 36 36z"/>
 </g>
</svg>
