<?xml version="1.0" encoding="UTF-8"?>
<svg fill="white" width="1200pt" height="1200pt" version="1.1" viewBox="0 0 1200 1200" xmlns="http://www.w3.org/2000/svg">
 <g>
  <path d="m885.45 524.39c-0.25391-0.79297-0.58594-1.5039-0.99219-2.2148-0.21094-0.37109-0.26172-0.79297-0.51563-1.1484l-94.406-132c-0.042968-0.054688-0.097656-0.097657-0.14062-0.15234-0.53516-0.70703-1.0781-1.3516-1.7539-1.9219-0.74219-0.64453-1.5547-1.1914-2.4258-1.6328-0.48438-0.23828-0.98828-0.39062-1.5117-0.5625-1.0859-0.38281-2.2109-0.62891-3.3828-0.68359-0.11328-0.007812-0.20703-0.070312-0.32422-0.070312h-156.62c3.7969-5.0273 6.1367-11.215 6.1367-18 0-16.57-13.434-30-30-30-16.57 0-30 13.43-30 30 0 6.7852 2.3359 12.973 6.1367 18h-155.65c-0.32422 0-0.59766 0.16016-0.91406 0.18359-0.51172-0.066406-1.0117-0.18359-1.5352-0.18359h-0.011719c-3.8789 0.007812-7.5117 1.8828-9.7617 5.0391l-93.961 132c-0.25391 0.35156-0.29688 0.76953-0.50781 1.1367-0.40625 0.71484-0.73828 1.4297-0.99219 2.2305-0.25391 0.78906-0.39453 1.5508-0.47656 2.3594-0.046875 0.42578-0.25 0.79688-0.25 1.2344 0 58.551 47.637 106.19 106.18 106.19 58.559 0 106.2-47.637 106.2-106.19 0-0.4375-0.20312-0.80859-0.25-1.2344-0.082031-0.81641-0.22656-1.5859-0.48047-2.3828-0.25391-0.79297-0.58594-1.5-0.99219-2.2109-0.21094-0.375-0.26172-0.79297-0.51562-1.1523l-80.84-113.02h147.11v432h-60c-6.6328 0-12 5.3711-12 12s5.3672 12 12 12h144c6.6328 0 12-5.3711 12-12s-5.3672-12-12-12h-60v-432h144.51l-80.465 113.04c-0.25391 0.35156-0.29688 0.76953-0.50781 1.1367-0.40625 0.71484-0.73828 1.4297-0.99219 2.2305-0.25391 0.78906-0.39453 1.5508-0.47656 2.3594-0.046875 0.42578-0.25 0.79688-0.25 1.2344 0 58.551 47.637 106.19 106.18 106.19s106.18-47.641 106.18-106.19c0-0.4375-0.20312-0.80859-0.25-1.2344-0.082032-0.8125-0.22656-1.5859-0.48047-2.3789zm-34.605-8.3867h-141.76l70.715-99.34zm-433.27-99.34 71.059 99.34h-141.77zm0.19922 193.53c-41.238 0-75.48-30.539-81.305-70.191h162.62c-5.8242 39.648-40.066 70.191-81.316 70.191zm362.23 0c-41.238 0-75.48-30.539-81.305-70.191h162.61c-5.8242 39.648-40.066 70.191-81.305 70.191z"/>
  <path d="m1068 612c6.6328 0 12-5.3711 12-12s-5.3672-12-12-12h-108v-168h62.531c4.6367 10.586 15.172 18 27.469 18 16.566 0 30-13.434 30-30 0-16.57-13.434-30-30-30-12.297 0-22.832 7.4141-27.469 18h-62.531v-96c0-33.082-26.918-60-60-60h-95.941v-108c0-6.6289-5.3672-12-12-12-6.6328 0-12 5.3711-12 12v108h-168v-108c0-6.6289-5.3672-12-12-12-6.6328 0-12 5.3711-12 12v108h-168v-62.535c10.582-4.6328 17.992-15.172 17.992-27.465 0-16.57-13.43-30-30-30-16.566 0-30 13.43-30 30 0 12.297 7.418 22.84 18.008 27.469v62.531h-96.059c-33.082 0-60 26.918-60 60v96h-108c-6.6328 0-12 5.3711-12 12s5.3672 12 12 12h108v168h-108c-6.6328 0-12 5.3711-12 12s5.3672 12 12 12h108v168h-62.531c-4.6367-10.586-15.172-18-27.469-18-16.57 0-30 13.43-30 30 0 16.566 13.43 30 30 30 12.297 0 22.832-7.4141 27.469-18h62.531v96c0 33.082 26.918 60 60 60h96v62.66c-10.555 4.6445-17.949 15.164-17.949 27.438 0 16.566 13.434 30 30 30 16.57 0 30-13.434 30-30 0-12.316-7.4375-22.875-18.051-27.496v-62.602h168v108c0 6.6289 5.3672 12 12 12s12-5.3711 12-12v-108h168v108c0 6.6289 5.3672 12 12 12s12-5.3711 12-12v-108h96c33.082 0 60-26.918 60-60v-96h108c6.6328 0 12-5.3711 12-12s-5.3672-12-12-12h-108v-168zm-132 288c0 19.852-16.148 36-36 36h-600c-19.852 0-36-16.148-36-36v-600c0-19.852 16.148-36 36-36h600c19.852 0 36 16.148 36 36z"/>
 </g>
</svg>
