<?xml version="1.0" encoding="UTF-8"?>
<svg  width="1200pt" height="1200pt" version="1.1" viewBox="0 0 1200 1200" xmlns="http://www.w3.org/2000/svg">
 <g>
  <path d="m744 756c-6.6289 0-12 5.3711-12 12v96c0 19.852-16.148 36-36 36h-344.05c-9.6133 0-18.664 3.7422-25.457 10.547l-86.488 86.484v-61.031c0-19.852-16.148-36-36-36h-48c-19.852 0-36-16.148-36-36v-384c0-19.852 16.148-36 36-36h252c6.6289 0 12-5.3711 12-12s-5.3711-12-12-12h-252c-33.082 0-60 26.918-60 60v384c0 33.082 26.918 60 60 60h48c6.6133 0 12 5.3867 12 12v90c0 4.8516 2.9219 9.2305 7.4062 11.086 1.4883 0.61719 3.0469 0.91406 4.5938 0.91406 3.1211 0 6.1875-1.2188 8.4844-3.5156l106.97-106.97c2.2695-2.2695 5.2852-3.5156 8.4922-3.5156h344.05c33.082 0 60-26.918 60-60v-96c0-6.6289-5.3711-12-12-12z"/>
  <path d="m1044 228h-540c-33.082 0-60 26.918-60 60v96c0 6.6289 5.3711 12 12 12s12-5.3711 12-12v-96c0-19.852 16.148-36 36-36h540c19.852 0 36 16.148 36 36v384c0 19.852-16.148 36-36 36h-48c-19.852 0-36 16.148-36 36v61.031l-86.484-86.484c-6.7969-6.8047-15.844-10.547-25.461-10.547h-56.055c-6.6289 0-12 5.3711-12 12s5.3711 12 12 12h56.055c3.2031 0 6.2227 1.2461 8.4883 3.5156l106.97 106.97c2.3008 2.2969 5.3672 3.5156 8.4883 3.5156 1.5469 0 3.1055-0.29688 4.5938-0.91406 4.4844-1.8555 7.4062-6.2344 7.4062-11.086v-90c0-6.6133 5.3867-12 12-12h48c33.082 0 60-26.918 60-60v-384c0-33.082-26.918-60-60-60z"/>
  <path d="m660 504h-120c-6.6289 0-12 5.3711-12 12v120c0 6.6289 5.3711 12 12 12h120c6.6289 0 12-5.3711 12-12v-120c0-6.6289-5.3711-12-12-12z"/>
  <path d="m804 660c0-6.6289-5.3711-12-12-12h-36v-60h36c6.6289 0 12-5.3711 12-12s-5.3711-12-12-12h-36v-60h36c6.6289 0 12-5.3711 12-12s-5.3711-12-12-12h-36c0-33.082-26.918-60-60-60v-36c0-6.6289-5.3711-12-12-12s-12 5.3711-12 12v36h-60v-36c0-6.6289-5.3711-12-12-12s-12 5.3711-12 12v36h-60v-36c0-6.6289-5.3711-12-12-12s-12 5.3711-12 12v36c-33.082 0-60 26.918-60 60h-36c-6.6289 0-12 5.3711-12 12s5.3711 12 12 12h36v60h-36c-6.6289 0-12 5.3711-12 12s5.3711 12 12 12h36v60h-36c-6.6289 0-12 5.3711-12 12s5.3711 12 12 12h36c0 33.082 26.918 60 60 60v36c0 6.6289 5.3711 12 12 12s12-5.3711 12-12v-36h60v36c0 6.6289 5.3711 12 12 12s12-5.3711 12-12v-36h60v36c0 6.6289 5.3711 12 12 12s12-5.3711 12-12v-36c33.082 0 60-26.918 60-60h36c6.6289 0 12-5.3711 12-12zm-72 12c0 19.852-16.148 36-36 36h-192c-19.852 0-36-16.148-36-36v-192c0-19.852 16.148-36 36-36h192c19.852 0 36 16.148 36 36z"/>
 </g>
</svg>
