<?xml version="1.0" encoding="UTF-8"?>
<svg fill= "white" width="1200pt" height="1200pt" version="1.1" viewBox="0 0 1200 1200" xmlns="http://www.w3.org/2000/svg">
 <g>
  <path d="m684 516h-120c-6.6289 0-12 5.3711-12 12v120c0 6.6289 5.3711 12 12 12h120c6.6289 0 12-5.3711 12-12v-120c0-6.6289-5.3711-12-12-12z"/>
  <path d="m974.48 531.17c-4.6875-4.6875-12.281-4.6875-16.969 0s-4.6875 12.281 0 16.969l27.863 27.859h-205.38v-60h36c6.6289 0 12-5.3711 12-12s-5.3711-12-12-12h-36c0-33.082-26.918-60-60-60v-36c0-6.6289-5.3711-12-12-12s-12 5.3711-12 12v36h-60v-36c0-6.6289-5.3711-12-12-12s-12 5.3711-12 12v36h-60v-36c0-6.6289-5.3711-12-12-12s-12 5.3711-12 12v36c-24.539 0-45.629 14.848-54.914 36h-75.375c-0.58203-0.085938-1.1055-0.34766-1.7109-0.34766-19.852 0-36-16.148-36-36v-227.65c0-0.125-0.066406-0.22656-0.070312-0.34766-0.19531-32.918-27.004-59.652-59.965-59.652-0.46484 0-0.85938 0.21484-1.3086 0.26562-0.45312-0.050781-0.84766-0.26562-1.3086-0.26562h-131.7c-4.5469-10.781-15.215-18.348-27.648-18.348-16.57 0-30 13.43-30 30 0 16.566 13.43 30 30 30 12.156 0 22.566-7.2617 27.281-17.652h132.07c0.46484 0 0.85938-0.21484 1.3086-0.26562 0.44922 0.050781 0.84375 0.26562 1.3086 0.26562 19.852 0 36 16.148 36 36 0 0.0625 0.035156 0.11328 0.035156 0.17578v47.824h-170.35c-4.5469-10.781-15.215-18.348-27.648-18.348-16.57 0-30 13.43-30 30 0 16.566 13.43 30 30 30 12.156 0 22.566-7.2617 27.281-17.652h170.72v84h-170.35c-4.5469-10.781-15.215-18.348-27.648-18.348-16.57 0-30 13.43-30 30 0 16.566 13.43 30 30 30 12.156 0 22.566-7.2617 27.281-17.652h170.72v48c0 0.12109 0.066406 0.22266 0.070312 0.34766 0.15625 13.445 4.875 25.707 12.52 35.652h-182.94c-4.5469-10.781-15.215-18.348-27.648-18.348-16.57 0-30 13.43-30 30 0 16.566 13.43 30 30 30 12.156 0 22.566-7.2617 27.281-17.652h302.72v84h-302.35c-4.5469-10.781-15.215-18.348-27.648-18.348-16.57 0-30 13.43-30 30 0 16.566 13.43 30 30 30 12.156 0 22.566-7.2617 27.281-17.652h302.72v84h-302.35c-4.5469-10.781-15.215-18.348-27.648-18.348-16.57 0-30 13.43-30 30 0 16.566 13.43 30 30 30 12.156 0 22.566-7.2617 27.281-17.652h183.03c-7.6172 10.059-12.309 22.441-12.309 36v48h-170.35c-4.5469-10.781-15.215-18.348-27.648-18.348-16.57 0-30 13.43-30 30 0 16.566 13.43 30 30 30 12.156 0 22.566-7.2617 27.281-17.652h170.72v84h-170.35c-4.5469-10.781-15.215-18.348-27.648-18.348-16.57 0-30 13.43-30 30 0 16.566 13.43 30 30 30 12.156 0 22.566-7.2617 27.281-17.652h170.72v48c0 19.852-16.148 36-36 36-0.60938 0-1.1367 0.26172-1.7227 0.34766-0.58594-0.085937-1.1133-0.34766-1.7227-0.34766h-130.91c-4.5469-10.781-15.215-18.348-27.648-18.348-16.57 0-30 13.43-30 30 0 16.566 13.43 30 30 30 12.156 0 22.566-7.2617 27.281-17.652h131.27c0.60937 0 1.1367-0.26172 1.7227-0.34766 0.58594 0.085937 1.1133 0.34766 1.7227 0.34766 33.082 0 60-26.918 60-60v-228c0-19.852 16.148-36 36-36h77.086c9.2852 21.152 30.375 36 54.914 36v36c0 6.6289 5.3711 12 12 12s12-5.3711 12-12v-36h60v36c0 6.6289 5.3711 12 12 12s12-5.3711 12-12v-36h60v36c0 6.6289 5.3711 12 12 12s12-5.3711 12-12v-36c33.082 0 60-26.918 60-60h36c6.6289 0 12-5.3711 12-12s-5.3711-12-12-12h-36v-60h204.68l-27.172 27.172c-4.6875 4.6875-4.6875 12.281 0 16.969 2.3438 2.3438 5.4141 3.5156 8.4844 3.5156 3.0703 0 6.1406-1.1719 8.4844-3.5156l48-48c4.6875-4.6875 4.6875-12.281 0-16.969zm-218.48 152.83c0 19.852-16.148 36-36 36h-192c-19.852 0-36-16.148-36-36v-192c0-19.852 16.148-36 36-36h192c19.852 0 36 16.148 36 36z"/>
  <path d="m1116 587.65c0 16.57-13.43 30-30 30s-30-13.43-30-30c0-16.566 13.43-30 30-30s30 13.434 30 30"/>
 </g>
</svg>
