<?xml version="1.0" encoding="UTF-8"?>
<svg width="1200pt" height="1200pt" version="1.1" viewBox="0 0 1200 1200" xmlns="http://www.w3.org/2000/svg">
 <g>
  <path d="m684 516h-120c-6.6289 0-12 5.3711-12 12v120c0 6.6289 5.3711 12 12 12h120c6.6289 0 12-5.3711 12-12v-120c0-6.6289-5.3711-12-12-12z" fill="white"/>
  <path d="m974.48 531.16c-4.6875-4.6875-12.281-4.6875-16.969 0s-4.6875 12.281 0 16.969l27.867 27.867h-205.38v-60h36c6.6328 0 12-5.3672 12-12s-5.3672-12-12-12h-36c0-33.082-26.918-60-60-60v-36c0-6.6328-5.3672-12-12-12s-12 5.3672-12 12v36h-60v-36c0-6.6328-5.3672-12-12-12s-12 5.3672-12 12v36h-60v-36c0-6.6328-5.3672-12-12-12s-12 5.3672-12 12v36c-24.398 0-45.355 14.691-54.723 35.648h-77.277c-13.074 0-24.426-7.0742-30.734-17.523 7.6836-5.4336 12.734-14.348 12.734-24.473 0-12.297-7.4141-22.836-18-27.469v-161.06c10.586-4.6328 18-15.172 18-27.469 0-16.57-13.43-30-30-30-9.5195 0-17.902 4.5195-23.398 11.438l-157.2-41.34c-2.7422-13.738-14.859-24.098-29.406-24.098-16.57 0-30 13.43-30 30 0 16.566 13.43 30 30 30 9.9961 0 18.789-4.9375 24.238-12.453l138.88 36.523-138.47 36.891c-5.4102-7.8164-14.422-12.961-24.652-12.961-16.57 0-30 13.43-30 30 0 16.566 13.43 30 30 30 14.305 0 26.223-10.031 29.227-23.43l157.43-41.941c3.0234 3.7812 6.8555 6.875 11.348 8.8398v161.07c-4.5195 1.9766-8.3711 5.0938-11.398 8.9062l-157.2-41.34c-2.7422-13.742-14.859-24.102-29.406-24.102-16.57 0-30 13.43-30 30 0 16.566 13.43 30 30 30 9.9961 0 18.789-4.9375 24.238-12.453l138.88 36.523-138.47 36.891c-5.4102-7.8164-14.422-12.961-24.652-12.961-16.57 0-30 13.43-30 30 0 16.566 13.43 30 30 30 14.305 0 26.223-10.031 29.227-23.43l157.43-41.941c4.0156 5.0195 9.543 8.7109 15.961 10.348 9.043 21.707 30.445 37.02 55.387 37.02h72.035c0 0.12109-0.035156 0.23047-0.035156 0.35156v84h-302.35c-4.5469-10.781-15.215-18.348-27.648-18.348-16.57 0-30 13.43-30 30 0 16.566 13.43 30 30 30 12.156 0 22.566-7.2617 27.281-17.652h302.72v84h-72c-29.707 0-54.266 21.762-59.004 50.148-4.4102 1.7461-8.2461 4.5273-11.344 8.0117l-158.12-51.156c-2.25-14.344-14.555-25.352-29.531-25.352-16.57 0-30 13.43-30 30 0 16.566 13.43 30 30 30 9.5117 0 17.891-4.5117 23.387-11.422l139.66 45.184-137.69 28.348c-5.3047-8.4453-14.641-14.109-25.355-14.109-16.57 0-30 13.43-30 30 0 16.566 13.43 30 30 30 13.816 0 25.328-9.3906 28.816-22.102l156.73-32.266c3.1367 4.4336 7.4219 7.9805 12.453 10.184v149.07c-4.5039 1.9688-8.3438 5.0742-11.371 8.8672l-157.22-41.617c-2.7305-13.758-14.848-24.133-29.406-24.133-16.57 0-30 13.43-30 30 0 16.566 13.43 30 30 30 9.9805 0 18.758-4.9258 24.211-12.418l138.89 36.766-138.42 36.641c-5.4141-7.8359-14.438-12.988-24.68-12.988-16.57 0-30 13.43-30 30 0 16.566 13.43 30 30 30 14.289 0 26.195-10.008 29.215-23.387l157.41-41.668c5.4961 6.8984 13.867 11.402 23.371 11.402 16.57 0 30-13.434 30-30 0-12.297-7.4141-22.836-18-27.469v-149.06c10.586-4.6367 18-15.172 18-27.469 0-11.801-6.875-21.91-16.781-26.805 3.9531-15.586 17.984-27.195 34.781-27.195h77.086c9.2852 21.152 30.375 36 54.914 36v36c0 6.6328 5.3672 12 12 12s12-5.3672 12-12v-36h60v36c0 6.6328 5.3672 12 12 12s12-5.3672 12-12v-36h60v36c0 6.6328 5.3672 12 12 12s12-5.3672 12-12v-36c33.082 0 60-26.918 60-60h36c6.6328 0 12-5.3672 12-12s-5.3672-12-12-12h-36v-60h204.68l-27.164 27.164c-4.6875 4.6875-4.6875 12.281 0 16.969 2.3438 2.3438 5.4141 3.5156 8.4844 3.5156s6.1406-1.1719 8.4844-3.5156l48-48c4.6875-4.6875 4.6875-12.281 0-16.969zm-218.48 152.84c0 19.852-16.148 36-36 36h-192c-19.852 0-36-16.148-36-36v-192c0-19.852 16.148-36 36-36h192c19.852 0 36 16.148 36 36z" fill="white"/>
  <path d="m1116 587.65c0 16.57-13.43 30-30 30s-30-13.43-30-30c0-16.566 13.43-30 30-30s30 13.434 30 30" fill="white"/>
 </g>
</svg>
