<?xml version="1.0" encoding="UTF-8"?>
<svg width="1200pt" height="1200pt" version="1.1" viewBox="0 0 1200 1200" xmlns="http://www.w3.org/2000/svg">
 <g>
  <path d="m1090.8 593.14c0.035156-0.070312 0.015625-0.15234 0.050781-0.22266 0.68359-1.5078 1.1094-3.1562 1.1094-4.9219s-0.42578-3.4141-1.1094-4.9219c-0.03125-0.070313-0.015625-0.15234-0.050781-0.22266-31.961-67.32-81.152-125.12-141.97-170.75l66.223-66.223c3.3867 1.3281 7.0508 2.1211 10.91 2.1211 16.57 0 30-13.434 30-30 0-16.57-13.43-30-30-30s-30 13.43-30 30c0 3.8594 0.79297 7.5234 2.1211 10.91l-68.93 68.93c-51.922-35.262-111.4-61.961-175.57-78.488l86.371-86.371c0.65625-0.65625 1.0078-1.4727 1.4805-2.2305 3.5391 1.4688 7.4141 2.2969 11.484 2.2969 16.566 0 30-13.43 30-30s-13.434-30-30-30c-16.57 0-30 13.43-30 30 0 4.0703 0.82812 7.9453 2.2969 11.484-0.75781 0.47266-1.5703 0.82422-2.2305 1.4805l-97.023 97.027c-36.824-7.6523-74.988-11.91-114-12.656v-146.92c10.586-4.6328 18-15.168 18-27.465 0-16.57-13.43-30-30-30s-30 13.43-30 30c0 12.297 7.4141 22.832 18 27.469v146.92c-39.008 0.74219-77.172 5.0039-113.99 12.652l-97.023-97.027c-0.65625-0.65625-1.4727-1.0078-2.2305-1.4805 1.4688-3.5391 2.2969-7.4141 2.2969-11.484 0-16.57-13.43-30-30-30-16.566 0-30 13.43-30 30s13.434 30 30 30c4.0742 0 7.9453-0.82812 11.484-2.2969 0.47266 0.75781 0.82031 1.5703 1.4805 2.2305l86.371 86.371c-64.176 16.527-123.66 43.227-175.57 78.488l-68.93-68.93c1.3242-3.3867 2.1172-7.0508 2.1172-10.91 0-16.57-13.43-30-30-30s-30 13.43-30 30c0 16.566 13.43 30 30 30 3.8594 0 7.5234-0.79297 10.91-2.1211l66.223 66.223c-60.82 45.633-110.01 103.43-141.97 170.75-0.035156 0.070312-0.015625 0.15234-0.050781 0.22266-0.68359 1.5078-1.1094 3.1562-1.1094 4.9219s0.42578 3.4102 1.1094 4.9219c0.03125 0.070313 0.015625 0.15234 0.050781 0.22266 31.961 67.32 81.152 125.12 141.97 170.75l-66.223 66.223c-3.3867-1.3281-7.0508-2.1211-10.91-2.1211-16.57 0-30 13.43-30 30 0 16.566 13.43 30 30 30s30-13.434 30-30c0-3.8594-0.79297-7.5234-2.1211-10.91l68.93-68.93c51.922 35.262 111.4 61.961 175.57 78.488l-86.371 86.371c-0.65625 0.65625-1.0078 1.4727-1.4805 2.2305-3.5391-1.4688-7.4141-2.2969-11.484-2.2969-16.566 0-30 13.43-30 30 0 16.566 13.434 30 30 30 16.57 0 30-13.434 30-30 0-4.0703-0.82812-7.9453-2.2969-11.484 0.75781-0.47266 1.5703-0.82422 2.2305-1.4805l97.023-97.027c36.824 7.6523 74.988 11.91 114 12.656v146.92c-10.586 4.6289-18 15.168-18 27.465 0 16.566 13.43 30 30 30s30-13.434 30-30c0-12.297-7.4141-22.836-18-27.469v-146.92c39.008-0.74219 77.172-5.0039 113.99-12.652l97.023 97.027c0.65625 0.65625 1.4727 1.0078 2.2305 1.4805-1.4688 3.5391-2.2969 7.4141-2.2969 11.484 0 16.566 13.43 30 30 30 16.566 0 30-13.434 30-30 0-16.57-13.434-30-30-30-4.0742 0-7.9453 0.82812-11.484 2.2969-0.47266-0.75781-0.82031-1.5703-1.4805-2.2305l-86.371-86.371c64.176-16.527 123.66-43.227 175.57-78.488l68.93 68.93c-1.3242 3.3867-2.1172 7.0508-2.1172 10.91 0 16.566 13.43 30 30 30s30-13.434 30-30c0-16.57-13.43-30-30-30-3.8594 0-7.5234 0.79297-10.91 2.1211l-66.223-66.223c60.82-45.633 110.01-103.43 141.97-170.75zm-30.695-17.145h-304.14v-60h84c3.1875 0 6.2344-1.2656 8.4844-3.5156l83.281-83.281c53.691 39.703 97.691 89.383 128.38 146.8zm-148.21-160.9-76.902 76.902h-79.031c0-33.082-26.918-60-60-60v-55.031l37.613-37.613c65.262 15.062 125.82 40.785 178.32 75.742zm-407.93 304.9c-19.852 0-36-16.148-36-36v-192c0-19.852 16.148-36 36-36h192c19.852 0 36 16.148 36 36v192c0 19.852-16.148 36-36 36zm201.54-386.5-30.016 30.016c-2.2539 2.25-3.5195 5.2969-3.5195 8.4844v60h-60v-107.62c31.871 0.62891 63.152 3.6719 93.535 9.1211zm-117.54-9.1211v107.62h-60v-60c0-3.1875-1.2656-6.2344-3.5156-8.4844l-30.016-30.016c30.379-5.4492 61.66-8.4922 93.531-9.1211zm-121.61 14.977 37.613 37.613v55.031c-33.082 0-60 26.918-60 60h-79.031l-76.902-76.902c52.5-34.957 113.06-60.68 178.32-75.742zm-198.15 89.848 83.281 83.281c2.25 2.25 5.2969 3.5156 8.4844 3.5156h84v60h-304.14c30.688-57.414 74.688-107.09 128.38-146.8zm-128.38 170.8h304.14v60h-84c-3.1875 0-6.2344 1.2656-8.4844 3.5156l-83.281 83.281c-53.691-39.703-97.691-89.383-128.38-146.8zm148.21 160.9 76.902-76.902h79.031c0 33.082 26.918 60 60 60v55.031l-37.613 37.613c-65.262-15.062-125.82-40.785-178.32-75.742zm206.4 81.598 30.016-30.016c2.2539-2.25 3.5195-5.2969 3.5195-8.4844v-60h60v107.62c-31.871-0.62891-63.152-3.6719-93.535-9.1211zm117.54 9.1211v-107.62h60v60c0 3.1875 1.2656 6.2344 3.5156 8.4844l30.016 30.016c-30.379 5.4492-61.66 8.4922-93.531 9.1211zm121.61-14.977-37.613-37.613v-55.031c33.082 0 60-26.918 60-60h79.031l76.902 76.902c-52.5 34.957-113.06 60.68-178.32 75.742zm198.15-89.848-83.281-83.281c-2.25-2.25-5.2969-3.5156-8.4844-3.5156h-84v-60h304.14c-30.688 57.414-74.688 107.09-128.38 146.8z"/>
  <path d="m648 588c0 26.508-21.492 48-48 48s-48-21.492-48-48 21.492-48 48-48 48 21.492 48 48"/>
 </g>
</svg>
